<?xml version="1.0" encoding="UTF-8"?>
<svg width="975px" height="675px" viewBox="0 0 975 675" version="1.1" xmlns="http://www.w3.org/2000/svg" xmlns:xlink="http://www.w3.org/1999/xlink">
    <title>undraw_crypto_portfolio_2jy5</title>
    <g id="Page-1" stroke="none" stroke-width="1" fill="none" fill-rule="evenodd">
        <g id="undraw_crypto_portfolio_2jy5">
            <path d="M88.0968597,294.40808 C70.0508597,309.17296 99.5806497,438.77597 99.5806497,438.77597 C99.5806497,438.77597 106.14282,636.4616 120.08744,645.48455 C134.03206,654.5075 165.20244,644.66423 177.50644,643.02372 C189.81044,641.38321 179.14696,519.16263 161.10099,474.04772 C143.05502,428.93281 156.99969,363.31096 156.99969,363.31096 L254.61206,382.17724 C254.61206,382.17724 195.55245,432.21384 198.01328,442.87737 C200.47411,453.5409 263.63502,489.63282 275.11886,491.27337 C286.6027,492.91392 308.74996,425.65163 328.43655,379.71637 C348.12314,333.78111 193.91199,304.25131 193.91199,304.25131 L172.58488,264.05798 C172.58488,264.05798 106.14288,279.64321 88.0968597,294.40808 Z" id="Path" fill="#2F2E41" fill-rule="nonzero"></path>
            <path d="M137.08769,648.88844 C137.08769,648.88844 131.13533,669.72173 137.08769,669.72173 C143.04005,669.72173 153.95269,675.67409 170.81769,673.68997 C187.68269,671.70585 182.72236,650.87262 170.81769,647.89641 C158.91302,644.9202 161.88918,621.11076 161.88918,621.11076 C157.92088,613.17428 139.07177,623.09488 139.07177,623.09488 L137.08769,648.88844 Z" id="Path" fill="#2F2E41" fill-rule="nonzero"></path>
            <path d="M221.59386,483.22115 C221.59386,483.22115 211.38195,502.3306 217.2004,503.58582 C223.01885,504.84104 232.43087,512.96094 249.33504,514.57801 C266.23921,516.19508 265.78389,494.78426 254.77453,489.3645 C243.76517,483.94474 251.69553,461.29836 251.69553,461.29836 C249.49019,452.70353 228.97284,458.426 228.97284,458.426 L221.59386,483.22115 Z" id="Path" fill="#2F2E41" fill-rule="nonzero"></path>
            <path d="M99.1704897,116.81915 C100.811,120.10024 93.4285697,161.11383 93.4285697,161.11383 L99.9907497,172.59764 C99.9907497,172.59764 137.7233,157.83283 131.98138,155.37199 C126.23946,152.91115 127.05972,122.5611 127.05972,122.5611 C127.05972,122.5611 97.5299697,113.53806 99.1704897,116.81915 Z" id="Path" fill="#FFB9B9" fill-rule="nonzero"></path>
            <circle id="Oval" fill="#2F2E41" fill-rule="nonzero" cx="113.37254" cy="79.16753" r="50.29399"></circle>
            <circle id="Oval" fill="#2F2E41" fill-rule="nonzero" cx="109.90399" cy="32.08409" r="20.81129"></circle>
            <path d="M119.0089,41.51014 C119.729106,41.5849172 120.452692,41.62266 121.17677,41.62266 C132.67055,41.62266 141.9881,32.3051102 141.9881,20.81133 C141.9881,9.31754982 132.67055,0 121.17677,0 C120.452692,0 119.729106,0.0377428375 119.0089,0.11252 C129.605529,1.22276417 137.652326,10.1566974 137.652326,20.81133 C137.652326,31.4659626 129.605529,40.3998958 119.0089,41.51014 L119.0089,41.51014 Z" id="Path" fill="#2F2E41" fill-rule="nonzero"></path>
            <circle id="Oval" fill="#FFB9B9" fill-rule="nonzero" cx="114.75568" cy="103.69483" r="34.45142"></circle>
            <path d="M65.1291197,156.60238 C54.4655397,159.06318 36.4195697,185.3119 36.4195697,185.3119 L65.1291197,214.02144 C65.1291197,214.02144 85.6359197,291.12701 88.0967497,294.4081 C104.21841,315.90362 176.68616,268.15942 176.68616,268.15942 C176.68616,268.15942 173.81516,244.78166 175.45575,233.29785 C177.03359,222.25308 169.30375,200.07685 169.30375,200.07685 C169.30375,200.07685 196.37275,188.59304 190.63086,177.10923 C184.88897,165.62542 149.61721,139.37673 134.85234,148.39971 C120.08747,157.42269 90.5576597,148.39971 90.5576597,148.39971 C90.5576597,148.39971 75.7926897,154.14158 65.1291197,156.60238 Z" id="Path" fill="#E6E6E6" fill-rule="nonzero"></path>
            <path d="M274.70875,321.88724 C274.70875,321.88724 321.4642,362.08061 332.94805,353.87785 C344.4319,345.67509 288.65337,316.96558 288.65337,316.96558 L274.70875,321.88724 Z" id="Path" fill="#FFB9B9" fill-rule="nonzero"></path>
            <path d="M64.7190797,307.9426 C71.2812597,315.32507 102.45163,296.45879 98.4554497,288.08038 C94.4592697,279.70197 69.6406797,296.45879 69.6406797,296.45879 C69.6406797,296.45879 58.1568997,300.56013 64.7190797,307.9426 Z" id="Path" fill="#FFB9B9" fill-rule="nonzero"></path>
            <path d="M65.1291797,196.79571 L30.6777697,260.77693 C30.6777697,260.77693 70.0507697,293.58785 74.9723897,294.40808 C79.8940097,295.22831 65.1291197,316.55542 65.1291197,316.55542 C65.1291197,316.55542 20.8344397,285.38507 3.60872968,269.79991 C-13.6169803,254.21475 36.4196297,185.31191 36.4196297,185.31191 L51.1845597,176.28891 L65.1291797,196.79571 Z" id="Path" fill="#E6E6E6" fill-rule="nonzero"></path>
            <path d="M165.20238,194.33494 L205.39569,256.67561 C205.39569,256.67561 266.91613,325.57849 275.11883,328.85955 C283.32153,332.14061 293.16483,316.55545 293.16483,316.55545 L219.34035,227.14578 L191.45112,177.10918 L180.78759,173.00783 L165.20238,194.33494 Z" id="Path" fill="#E6E6E6" fill-rule="nonzero"></path>
            <ellipse id="Oval" fill="#2F2E41" fill-rule="nonzero" cx="113.37254" cy="62.76198" rx="34.68552" ry="20.81131"></ellipse>
            <path d="M210.677,511.78937 C208.310042,511.792206 206.38916,513.710312 206.38916,516.07727 L206.38916,662.32191 C206.38916,664.688858 208.310051,666.606947 210.677,666.60968 L709.3458,666.60968 C711.712713,666.606886 713.63358,664.688823 713.63358,662.32191 L713.63358,516.07721 C713.63358,513.710265 711.712745,511.792153 709.3458,511.78937 L210.677,511.78937 Z" id="Path" fill="#E6E6E6" fill-rule="nonzero"></path>
            <polygon id="Path" fill="#FFFFFF" fill-rule="nonzero" points="217 656.32993 702.75386 656.32993 702.75386 523 217 523"></polygon>
            <path d="M641.57418,628.204685 C639.034642,628.201677 636.686721,629.554774 635.416082,631.753577 C634.145442,633.952381 634.145442,636.662289 635.416082,638.861093 C636.686721,641.059896 639.034642,642.412993 641.57418,642.409985 L669.98469,642.409985 C673.907372,642.409985 677.087335,639.230018 677.087335,635.307335 C677.087335,631.384652 673.907372,628.204685 669.98469,628.204685 L641.57418,628.204685 Z" id="Path" fill="#3459E6" fill-rule="nonzero"></path>
            <rect id="Rectangle" fill="#E6E6E6" fill-rule="nonzero" x="349.12191" y="614.42769" width="327.96547" height="1.86875"></rect>
            <circle id="Oval" fill="#3459E6" fill-rule="nonzero" cx="271.37" cy="589.37" r="32.37"></circle>
            <path d="M355.19534,629.181735 C353.023654,629.178953 351.015741,630.335934 349.929092,632.216206 C348.842444,634.096477 348.842444,636.413873 349.929092,638.294144 C351.015741,640.174416 353.023654,641.331397 355.19534,641.328615 L418.73281,641.328615 C422.084032,641.32431 424.798456,638.6064 424.798456,635.255175 C424.798456,631.90395 422.084032,629.18604 418.73281,629.181735 L355.19534,629.181735 Z" id="Path" fill="#E6E6E6" fill-rule="nonzero"></path>
            <path d="M275.61215,43.35424 C273.245189,43.3570363 271.32432,45.2751498 271.32432,47.64211 L271.32432,193.88678 C271.32432,196.253728 273.245201,198.171821 275.61215,198.17456 L774.28096,198.17456 C776.647869,198.17175 778.56873,196.253689 778.56873,193.88678 L778.56873,47.64208 C778.56873,45.2751363 776.647903,43.3570228 774.28096,43.35424 L275.61215,43.35424 Z" id="Path" fill="#E6E6E6" fill-rule="nonzero"></path>
            <polygon id="Path" fill="#FFFFFF" fill-rule="nonzero" points="282 187.32995 767.75386 187.32995 767.75386 54 282 54"></polygon>
            <path d="M706.50933,159.76956 C702.586644,159.76956 699.40668,162.949525 699.40668,166.87221 C699.40668,170.794895 702.586644,173.97486 706.50933,173.97486 L734.91987,173.97486 C738.842555,173.97486 742.02252,170.794895 742.02252,166.87221 C742.02252,162.949525 738.842555,159.76956 734.91987,159.76956 L706.50933,159.76956 L706.50933,159.76956 Z" id="Path" fill="#3459E6" fill-rule="nonzero"></path>
            <rect id="Rectangle" fill="#E6E6E6" fill-rule="nonzero" x="414.05706" y="145.99257" width="327.96547" height="1.86875"></rect>
            <circle id="Oval" fill="#3459E6" fill-rule="nonzero" cx="349.36917" cy="120.36917" r="32.36917"></circle>
            <path d="M420.13049,160.74661 C416.779267,160.75091 414.064843,163.46882 414.064843,166.820045 C414.064843,170.17127 416.779267,172.88918 420.13049,172.89348 L483.66796,172.89348 C487.022225,172.89348 489.741395,170.174311 489.741395,166.820045 C489.741395,163.465779 487.022225,160.74661 483.66796,160.74661 L420.13049,160.74661 Z" id="Path" fill="#E6E6E6" fill-rule="nonzero"></path>
            <path d="M471.79879,277.57181 C469.431831,277.574601 467.51096,279.492711 467.51096,281.85967 L467.51096,428.10434 C467.51096,430.471288 469.431841,432.389381 471.79879,432.39212 L970.4676,432.39212 C972.834513,432.389321 974.75537,430.471253 974.75537,428.10434 L974.75537,281.85964 C974.75537,279.492698 972.834542,277.574587 970.4676,277.57181 L471.79879,277.57181 Z" id="Path" fill="#E6E6E6" fill-rule="nonzero"></path>
            <polygon id="Path" fill="#FFFFFF" fill-rule="nonzero" points="478 421.32992 963.75386 421.32992 963.75386 288 478 288"></polygon>
            <path d="M902.69597,393.98712 C898.773284,393.98712 895.59332,397.167085 895.59332,401.08977 C895.59332,405.012455 898.773284,408.19242 902.69597,408.19242 L931.10651,408.19242 C935.029195,408.19242 938.20916,405.012455 938.20916,401.08977 C938.20916,397.167085 935.029195,393.98712 931.10651,393.98712 L902.69597,393.98712 L902.69597,393.98712 Z" id="Path" fill="#F9CB39" fill-rule="nonzero"></path>
            <rect id="Rectangle" fill="#E6E6E6" fill-rule="nonzero" x="610.2437" y="380.21013" width="327.96547" height="1.86875"></rect>
            <circle id="Oval" fill="#F9CB39" fill-rule="nonzero" cx="545.37" cy="355.37" r="32.37"></circle>
            <path d="M616.31713,394.96418 C612.962864,394.96418 610.243695,397.683349 610.243695,401.037615 C610.243695,404.391881 612.962864,407.11105 616.31713,407.11105 L679.8546,407.11105 C683.208865,407.11105 685.928035,404.391881 685.928035,401.037615 C685.928035,397.683349 683.208865,394.96418 679.8546,394.96418 L616.31713,394.96418 Z" id="Path" fill="#E6E6E6" fill-rule="nonzero"></path>
            <line x1="351.5" y1="570.5" x2="651.5" y2="570.5" id="Line" stroke="#3459E6" stroke-width="4" opacity="0.503868466" stroke-linecap="round"></line>
            <line x1="610.5" y1="336.5" x2="910.5" y2="336.5" id="Line-Copy-3" stroke="#F9CB39" stroke-width="4" opacity="0.503868466" stroke-linecap="round"></line>
            <line x1="414.5" y1="102.5" x2="714.5" y2="102.5" id="Line-Copy-6" stroke="#3459E6" stroke-width="4" opacity="0.503868466" stroke-linecap="round"></line>
            <line x1="351.5" y1="585.5" x2="651.5" y2="585.5" id="Line-Copy" stroke="#3459E6" stroke-width="4" opacity="0.503868466" stroke-linecap="round"></line>
            <line x1="610.5" y1="351.5" x2="910.5" y2="351.5" id="Line-Copy-4" stroke="#F9CB39" stroke-width="4" opacity="0.503868466" stroke-linecap="round"></line>
            <line x1="414.5" y1="117.5" x2="714.5" y2="117.5" id="Line-Copy-7" stroke="#3459E6" stroke-width="4" opacity="0.503868466" stroke-linecap="round"></line>
            <line x1="351.5" y1="600.5" x2="601.5" y2="600.5" id="Line-Copy-2" stroke="#3459E6" stroke-width="4" opacity="0.503868466" stroke-linecap="round"></line>
            <line x1="610.5" y1="366.5" x2="860.5" y2="366.5" id="Line-Copy-5" stroke="#F9CB39" stroke-width="4" opacity="0.503868466" stroke-linecap="round"></line>
            <line x1="414.5" y1="132.5" x2="664.5" y2="132.5" id="Line-Copy-8" stroke="#3459E6" stroke-width="4" opacity="0.503868466" stroke-linecap="round"></line>
        </g>
    </g>
</svg>