<?xml version="1.0" standalone="no"?>
<!DOCTYPE svg PUBLIC "-//W3C//DTD SVG 20010904//EN"
 "http://www.w3.org/TR/2001/REC-SVG-20010904/DTD/svg10.dtd">
<svg version="1.0" xmlns="http://www.w3.org/2000/svg"
 width="512.000000pt" height="512.000000pt" viewBox="0 0 512.000000 512.000000"
 preserveAspectRatio="xMidYMid meet">
<metadata>
Created by potrace 1.14, written by Peter Selinger 2001-2017
</metadata>
<g transform="translate(0.000000,512.000000) scale(0.100000,-0.100000)"
fill="#000000" stroke="none">
<path d="M1018 3485 c-2 -2 -21 -5 -43 -8 -22 -3 -51 -8 -65 -12 -14 -3 -36
-8 -49 -11 -34 -7 -185 -66 -191 -74 -3 -4 -21 -15 -40 -25 -80 -41 -192 -140
-263 -233 -137 -177 -199 -374 -192 -602 4 -146 5 -154 49 -283 91 -268 309
-487 576 -579 143 -49 170 -51 775 -53 314 -1 578 2 588 7 9 5 17 15 17 22 0
25 -236 253 -275 266 -26 8 -161 13 -443 14 -224 2 -418 6 -432 9 -67 17 -160
52 -160 59 0 4 -6 8 -14 8 -16 0 -137 87 -149 107 -4 7 -18 23 -31 36 -62 60
-125 192 -145 302 -13 74 -7 211 13 283 33 121 109 236 208 316 64 51 143 98
152 89 3 -3 6 -2 6 4 0 13 96 40 169 48 76 9 276 9 290 1 6 -4 11 -4 11 1 0 4
23 8 50 8 28 0 50 -4 50 -8 0 -5 5 -5 11 -1 6 3 62 6 125 5 143 -2 132 -2 174
1 20 1 43 -1 53 -5 9 -3 17 -3 17 1 0 14 307 4 394 -13 63 -12 216 -74 216
-87 0 -5 5 -8 11 -8 17 0 127 -82 179 -132 25 -25 70 -73 100 -109 59 -70 217
-229 265 -269 17 -14 42 -31 58 -39 15 -8 27 -18 27 -23 0 -4 7 -8 15 -8 8 0
15 -5 15 -12 0 -6 3 -8 6 -5 4 4 20 -3 35 -14 16 -11 29 -17 29 -13 0 3 6 2
13 -4 22 -19 159 -52 238 -58 71 -6 78 -4 98 17 19 20 21 34 21 130 0 60 -5
119 -11 133 -9 19 -44 39 -66 37 -2 0 -32 9 -67 19 -64 18 -168 67 -174 83 -2
4 -8 7 -14 7 -20 0 -177 140 -274 246 -160 173 -252 262 -311 301 -88 59 -130
81 -208 109 -46 16 -108 18 -742 20 -381 1 -694 0 -695 -1z"/>
<path d="M2999 3468 c-9 -17 2 -33 98 -129 151 -154 150 -153 255 -156 48 -1
92 -4 98 -8 5 -3 10 -3 10 2 0 4 23 8 50 8 28 0 50 -4 50 -8 0 -5 5 -5 11 -1
18 11 530 3 578 -9 198 -51 358 -182 440 -360 54 -119 68 -253 40 -390 -16
-82 -69 -205 -105 -244 -71 -79 -95 -103 -136 -136 -27 -21 -48 -35 -48 -30 0
4 -4 3 -8 -3 -7 -10 -96 -54 -117 -58 -5 -1 -19 -5 -30 -9 -11 -3 -33 -9 -50
-13 -37 -9 -1146 -10 -1195 -2 -198 36 -378 154 -550 359 -171 205 -377 355
-530 389 -19 5 -46 11 -60 14 -14 3 -57 8 -97 10 -108 7 -116 -2 -118 -135 0
-57 1 -114 3 -127 6 -29 40 -52 95 -63 73 -14 81 -17 127 -35 111 -44 242
-144 370 -284 193 -211 301 -309 401 -367 57 -32 147 -63 208 -70 105 -13
1360 -7 1426 6 33 7 71 14 85 17 71 15 263 107 302 146 10 10 22 18 27 18 18
0 162 154 206 220 216 324 212 739 -8 1065 -38 56 -201 225 -217 225 -4 0 -34
17 -66 39 -33 21 -95 52 -139 69 -74 29 -109 39 -190 58 -16 4 -294 8 -618 10
-579 2 -587 2 -598 -18z"/>
<path d="M959 2711 c-22 -17 -23 -24 -23 -170 0 -203 -8 -195 191 -196 148 -1
148 -1 173 25 24 26 25 31 23 156 -1 71 -2 137 -2 147 -1 9 -10 26 -21 37 -18
18 -33 20 -169 20 -130 0 -152 -2 -172 -19z"/>
<path d="M3864 2709 c-17 -19 -23 -55 -25 -174 0 -5 2 -43 4 -84 7 -106 5
-105 193 -106 202 0 193 -9 194 196 0 196 7 189 -197 189 -140 0 -151 -1 -169
-21z"/>
</g>
</svg>
